<?xml version="1.0" encoding="UTF-8"?>
<svg width="24px" height="15px" viewBox="0 0 24 15" version="1.1" xmlns="http://www.w3.org/2000/svg" xmlns:xlink="http://www.w3.org/1999/xlink">
    <!-- Generator: Sketch 43.2 (39069) - http://www.bohemiancoding.com/sketch -->
    <title>Group</title>
    <desc>Created with Sketch.</desc>
    <defs></defs>
    <g id="Page-1" stroke="none" stroke-width="1" fill="none" fill-rule="evenodd" stroke-linecap="round" stroke-linejoin="round">
        <g id="Group" stroke="#FFFFFF">
            <path d="M8.5,10.5 C8.5,12.709 6.709,14.5 4.5,14.5 C2.292,14.5 0.5,12.709 0.5,10.5 C0.5,8.291 2.292,6.5 4.5,6.5 C6.709,6.5 8.5,8.291 8.5,10.5 L8.5,10.5 Z" id="Stroke-1485"></path>
            <path d="M23.5,10.5 C23.5,12.709 21.709,14.5 19.5,14.5 C17.293,14.5 15.5,12.709 15.5,10.5 C15.5,8.291 17.293,6.5 19.5,6.5 C21.709,6.5 23.5,8.291 23.5,10.5 L23.5,10.5 Z" id="Stroke-1486"></path>
            <polyline id="Stroke-1487" points="11 10.501 17 4.5 8.5 4.5 4.5 10.5 11 10.5 6.937 0.813"></polyline>
            <path d="M19.5,10.5 L18.553,10.179 L16.209,1.5 L19.361,1.867 C19.908,1.947 20.287,2.454 20.209,3 C20.13,3.546 19.623,3.926 19.076,3.847" id="Stroke-1488"></path>
            <path d="M6,0.5 L9,1.5" id="Stroke-1489"></path>
        </g>
    </g>
</svg>
