<?xml version="1.0" encoding="UTF-8"?>
<svg width="40px" height="40px" viewBox="0 0 40 40" version="1.1" xmlns="http://www.w3.org/2000/svg" xmlns:xlink="http://www.w3.org/1999/xlink">
    <!-- Generator: Sketch 44.1 (41455) - http://www.bohemiancoding.com/sketch -->
    <title>Artboard 3</title>
    <desc>Created with Sketch.</desc>
    <defs></defs>
    <g id="Page-1" stroke="none" stroke-width="2" fill="none" fill-rule="evenodd" stroke-linejoin="round">
        <g id="Artboard-3" stroke="#212121">
            <g id="Stroke-526-+-Stroke-527" transform="translate(0.000000, 3.000000)">
                <path d="M15.8285,34.1666667 L30.8335,34.1666667 C30.8335,34.1666667 30.8335,28.58 30.0435,26.1983333 C29.3551667,24.1266667 24.3835,22.74 19.1668333,20.7733333 L19.1668333,16.6066667 C19.1668333,16.6066667 20.8335,15.575 20.8335,11.6066667 C22.5001667,11.6066667 22.5001667,8.27333333 20.8335,8.27333333 C20.8335,7.88333333 22.6301667,5.47666667 22.0835,3.27333333 C21.2935,0.1 11.8318333,0.1 11.0418333,3.27333333 C7.0935,2.48 9.16683333,7.74 9.16683333,8.27333333 L9.16683333,11.6066667 C9.16683333,15.575 12.5001667,16.6066667 12.5001667,16.6066667 L12.5001667,20.7733333 C7.87016667,22.5316667 2.31016667,24.1266667 1.6235,26.1983333 C0.8335,28.58 0.8335,34.1666667 0.8335,34.1666667 L15.8285,34.1666667 L15.8285,34.1666667 Z" id="Stroke-526"></path>
                <path d="M35,34.1666667 L39.1666667,34.1666667 C39.1666667,34.1666667 39.1666667,28.58 38.3766667,26.1983333 C37.6883333,24.1266667 32.7166667,21.9066667 27.5,19.94 L27.5,17.44 C27.5,17.44 29.1666667,16.4083333 29.1666667,12.44 C30.8333333,12.44 30.8333333,9.10666667 29.1666667,9.10666667 C29.1666667,8.71666667 30.9633333,6.00333333 30.4166667,3.8 C30.0466667,2.31666667 26.875,-0.03 24.375,1.63666667" id="Stroke-527" stroke-linecap="round"></path>
            </g>
        </g>
    </g>
</svg>
