<?xml version="1.0" encoding="UTF-8"?>
<svg width="24px" height="21px" viewBox="0 0 24 21" version="1.1" xmlns="http://www.w3.org/2000/svg" xmlns:xlink="http://www.w3.org/1999/xlink">
    <!-- Generator: Sketch 43.1 (39012) - http://www.bohemiancoding.com/sketch -->
    <title>Stroke 526 + Stroke 527</title>
    <desc>Created with Sketch.</desc>
    <defs></defs>
    <g id="Page-1" stroke="none" stroke-width="1" fill="none" fill-rule="evenodd" stroke-linejoin="round">
        <g id="Stroke-526-+-Stroke-527" stroke="#000000">
            <path d="M9.4971,20.5 L18.5001,20.5 C18.5001,20.5 18.5001,17.148 18.0261,15.719 C17.6131,14.476 14.6301,13.644 11.5001,12.464 L11.5001,9.964 C11.5001,9.964 12.5001,9.345 12.5001,6.964 C13.5001,6.964 13.5001,4.964 12.5001,4.964 C12.5001,4.73 13.5781,3.286 13.2501,1.964 C12.7761,0.06 7.0991,0.06 6.6251,1.964 C4.2561,1.488 5.5001,4.644 5.5001,4.964 L5.5001,6.964 C5.5001,9.345 7.5001,9.964 7.5001,9.964 L7.5001,12.464 C4.7221,13.519 1.3861,14.476 0.9741,15.719 C0.5001,17.148 0.5001,20.5 0.5001,20.5 L9.4971,20.5 L9.4971,20.5 Z" id="Stroke-526"></path>
            <path d="M21,20.5 L23.5,20.5 C23.5,20.5 23.5,17.148 23.026,15.719 C22.613,14.476 19.63,13.144 16.5,11.964 L16.5,10.464 C16.5,10.464 17.5,9.845 17.5,7.464 C18.5,7.464 18.5,5.464 17.5,5.464 C17.5,5.23 18.578,3.602 18.25,2.28 C18.028,1.39 16.125,-0.018 14.625,0.982" id="Stroke-527" stroke-linecap="round"></path>
        </g>
    </g>
</svg>