<?xml version="1.0" encoding="UTF-8"?>
<svg width="40px" height="40px" viewBox="0 0 40 40" version="1.1" xmlns="http://www.w3.org/2000/svg" xmlns:xlink="http://www.w3.org/1999/xlink">
    <!-- Generator: Sketch 44.1 (41455) - http://www.bohemiancoding.com/sketch -->
    <title>Artboard</title>
    <desc>Created with Sketch.</desc>
    <defs></defs>
    <g id="Page-1" stroke="none" stroke-width="2" fill="none" fill-rule="evenodd">
        <g id="Artboard" stroke="#FFFFFF">
            <g id="repair">
                <path d="M5.93416667,37.6001667 C4.9575,38.5785 3.3725,38.5785 2.39916667,37.6001667 C1.4225,36.6251667 1.4225,35.0435 2.39916667,34.0668333 L13.3491667,23.1135 L16.8841667,26.6485 L5.93416667,37.6001667 L5.93416667,37.6001667 Z" id="Stroke-3026"></path>
                <path d="M11.5853333,21.3443333 L18.652,28.4143333" id="Stroke-3027" stroke-linecap="round"></path>
                <path d="M32.9166667,7.08333333 L15.1033333,24.8966667" id="Stroke-3028"></path>
                <polygon id="Stroke-3029" points="34.8893333 9.05516667 30.7643333 4.9335 36.666 0.8335 39.166 3.3335"></polygon>
                <path d="M19.816,16.3541667 L13.5743333,10.1141667 C14.601,7.6875 14.131,4.77583333 12.151,2.7975 C10.1743333,0.8225 7.38933333,0.349166667 4.961,1.37583333 L8.076,4.89083333 L8.076,8.22416667 L4.74266667,8.22416667 L1.30266667,5.03416667 C0.274333333,7.4625 0.747666667,10.3091667 2.72433333,12.2875 C4.70266667,14.2675 7.61433333,14.7058333 10.0393333,13.6775 L16.2826667,19.9075" id="Stroke-3030"></path>
                <path d="M19.816,23.4245 L26.061,29.6711667 C25.0343333,32.0978333 25.5043333,35.0078333 27.4843333,36.9861667 C29.461,38.9628333 32.371,39.4328333 34.7993333,38.4078333 L31.4093333,34.8895 L31.4093333,31.5561667 L34.7426667,31.5561667 L38.3326667,34.8711667 C39.361,32.4445 38.8876667,29.5361667 36.911,27.5578333 C34.9326667,25.5795 32.0226667,25.1078333 29.596,26.1345 L23.3543333,19.8895" id="Stroke-3031"></path>
            </g>
        </g>
    </g>
</svg>
