<?xml version="1.0" encoding="UTF-8"?>
<svg width="25px" height="24px" viewBox="0 0 25 24" version="1.1" xmlns="http://www.w3.org/2000/svg" xmlns:xlink="http://www.w3.org/1999/xlink">
    <!-- Generator: Sketch 43.2 (39069) - http://www.bohemiancoding.com/sketch -->
    <title>Group</title>
    <desc>Created with Sketch.</desc>
    <defs></defs>
    <g id="Page-1" stroke="none" stroke-width="1" fill="none" fill-rule="evenodd" stroke-linejoin="round">
        <g id="Group" transform="translate(1.000000, 0.000000)" stroke="#FFFFFF">
            <path d="M3.5605,22.5601 C2.9745,23.1471 2.0235,23.1471 1.4395,22.5601 C0.8535,21.9751 0.8535,21.0261 1.4395,20.4401 L8.0095,13.8681 L10.1305,15.9891 L3.5605,22.5601 L3.5605,22.5601 Z" id="Stroke-3026"></path>
            <path d="M6.9512,12.8066 L11.1912,17.0486" id="Stroke-3027" stroke-linecap="round"></path>
            <path d="M19.75,4.25 L9.062,14.938" id="Stroke-3028"></path>
            <polygon id="Stroke-3029" points="20.9336 5.4331 18.4586 2.9601 21.9996 0.5001 23.4996 2.0001"></polygon>
            <path d="M11.8896,9.8125 L8.1446,6.0685 C8.7606,4.6125 8.4786,2.8655 7.2906,1.6785 C6.1046,0.4935 4.4336,0.2095 2.9766,0.8255 L4.8456,2.9345 L4.8456,4.9345 L2.8456,4.9345 L0.7816,3.0205 C0.1646,4.4775 0.4486,6.1855 1.6346,7.3725 C2.8216,8.5605 4.5686,8.8235 6.0236,8.2065 L9.7696,11.9445" id="Stroke-3030"></path>
            <path d="M11.8896,14.0547 L15.6366,17.8027 C15.0206,19.2587 15.3026,21.0047 16.4906,22.1917 C17.6766,23.3777 19.4226,23.6597 20.8796,23.0447 L18.8456,20.9337 L18.8456,18.9337 L20.8456,18.9337 L22.9996,20.9227 C23.6166,19.4667 23.3326,17.7217 22.1466,16.5347 C20.9596,15.3477 19.2136,15.0647 17.7576,15.6807 L14.0126,11.9337" id="Stroke-3031"></path>
        </g>
    </g>
</svg>
